<svg version="1.1" id="图层_1" xmlns="http://www.w3.org/2000/svg" xmlns:xlink="http://www.w3.org/1999/xlink" x="0px" y="0px"
	 width="180.595px" height="29.391px" viewBox="0 0 180.595 29.391" enable-background="new 0 0 180.595 29.391"
	 xml:space="preserve">
<path fill="#FFFFFF" d="M0,22.634h1.034c1.017,0,1.626-0.246,1.828-0.738c0.202-0.492,0.304-2.848,0.304-7.069v-5.56
	c0-4.374-0.088-6.784-0.263-7.233C2.729,1.585,2.204,1.361,1.329,1.361H0V0.328c1.818,0.077,3.615,0.115,5.39,0.115
	c1.479,0,2.82-0.038,4.025-0.115v1.033h-1.27c-0.78,0-1.27,0.093-1.468,0.279C6.48,1.826,6.364,2.296,6.332,3.051
	c-0.056,1.17-0.083,3.253-0.083,6.249v5.659c0,4.253,0.094,6.596,0.28,7.028c0.187,0.432,0.786,0.648,1.798,0.648h1.088v1.033
	C8.067,23.59,6.6,23.552,5.012,23.552C3.16,23.552,1.49,23.59,0,23.667V22.634z"/>
<path fill="#FFFFFF" d="M35.147,3.87l-4.875,10.145c-1.828,3.809-3.327,7.135-4.498,9.98h-0.656
	c-0.404-0.974-1.564-3.475-3.479-7.503L15.762,4.326v12.681c0,2.953,0.118,4.629,0.354,5.028s0.97,0.599,2.201,0.599h0.609v1.033
	c-1.523-0.077-2.761-0.115-3.714-0.115c-0.69,0-2.065,0.038-4.126,0.115v-1.033h1.066c0.722,0,1.203-0.104,1.443-0.312
	s0.388-0.585,0.442-1.132c0.143-1.531,0.214-3.182,0.214-4.953V6.954c0-2.241-0.05-3.723-0.147-4.445
	c-0.044-0.372-0.205-0.656-0.484-0.853c-0.278-0.197-0.834-0.295-1.665-0.295h-0.869V0.328c1.903,0.077,3.101,0.115,3.593,0.115
	c0.623,0,1.51-0.038,2.658-0.115c1.324,2.943,2.851,6.187,4.58,9.731l4.318,8.878l3.988-8.222c1.4-2.877,2.998-6.34,4.792-10.388
	c1.367,0.077,2.329,0.115,2.887,0.115c0.646,0,1.81-0.038,3.493-0.115v1.033h-1.071c-0.967,0-1.559,0.167-1.772,0.5
	c-0.214,0.334-0.321,1.534-0.321,3.6v11.99c0,2.668,0.112,4.199,0.338,4.592s0.854,0.59,1.888,0.59h0.939v1.033
	c-1.52-0.077-2.974-0.115-4.362-0.115c-1.531,0-3.133,0.038-4.806,0.115v-1.033h1.082c0.864,0,1.387-0.188,1.566-0.566
	c0.181-0.377,0.271-1.998,0.271-4.863V3.87z"/>
<path fill="#FFFFFF" d="M55.625,23.995c1.259,0.328,2.566,0.771,3.923,1.329c2.834,1.159,4.88,1.738,6.139,1.738
	c0.426,0,1.072-0.109,1.937-0.328v0.853c-1.227,0.634-2.135,1.235-2.726,1.804c-0.952-0.121-1.812-0.282-2.577-0.484
	c-0.767-0.203-1.932-0.593-3.497-1.173c-2.583-0.94-4.318-1.41-5.204-1.41c-0.252,0-0.518,0.054-0.797,0.164
	c-0.279,0.109-0.977,0.476-2.093,1.099v-1.083c1.873-1.257,3.215-2.094,4.026-2.509c-2.474,0-4.585-0.49-6.335-1.469
	c-1.751-0.979-3.119-2.377-4.104-4.193s-1.477-3.944-1.477-6.385c0-3.567,1.159-6.45,3.479-8.649C48.64,1.1,51.73,0,55.593,0
	c3.785,0,6.753,1.021,8.903,3.061s3.225,4.757,3.225,8.149c0,2.604-0.632,4.888-1.896,6.852c-1.264,1.964-2.918,3.471-4.965,4.521
	C59.395,23.338,57.649,23.809,55.625,23.995z M46.301,10.619c0,2.462,0.422,4.607,1.265,6.435c0.842,1.828,1.97,3.198,3.381,4.112
	c1.412,0.914,3.026,1.37,4.844,1.37c1.685,0,3.157-0.388,4.415-1.165c1.259-0.777,2.249-1.932,2.972-3.463
	c0.723-1.532,1.084-3.403,1.084-5.614c0-2.32-0.399-4.3-1.199-5.942c-0.799-1.641-1.893-2.875-3.283-3.701
	c-1.39-0.826-3.036-1.239-4.94-1.239c-1.74,0-3.24,0.367-4.498,1.1c-1.259,0.733-2.247,1.806-2.964,3.217S46.301,8.77,46.301,10.619
	z"/>
<path fill="#FFFFFF" d="M78.396,11.954l-2.457-4.081c-1.553-2.602-2.811-4.368-3.772-5.297c-0.536-0.503-1.099-0.754-1.689-0.754
	c-0.208,0-0.552,0.027-1.033,0.082V0.869l4.822-0.771c0.535,0.437,0.992,0.899,1.369,1.386c0.377,0.487,1.042,1.534,1.993,3.141
	l2.786,4.698l6.135-8.995h3.413v1.017h-0.64c-0.449,0-0.796,0.074-1.042,0.222c-0.246,0.148-0.987,1.015-2.223,2.602
	c-2.34,2.999-3.982,5.153-4.928,6.463l5.42,8.689c1.094,1.76,1.769,2.753,2.025,2.977c0.257,0.225,0.626,0.336,1.107,0.336h0.688
	v1.033c-1.269-0.077-2.235-0.115-2.902-0.115s-1.345,0.038-2.034,0.115l-6.231-10.366c-0.843,1.166-2.034,2.944-3.576,5.335
	c-1.542,2.391-2.57,4.067-3.084,5.03c-0.524-0.077-1.039-0.115-1.541-0.115c-0.602,0-1.258,0.038-1.969,0.115v-1.033h0.738
	c0.448,0,0.814-0.131,1.099-0.394c0.284-0.262,1.481-1.866,3.592-4.809L78.396,11.954z"/>
<path fill="#FFFFFF" d="M95.104,20.157c0.526,0,0.977,0.186,1.351,0.558c0.373,0.372,0.56,0.826,0.56,1.361
	c0,0.525-0.187,0.976-0.56,1.353c-0.374,0.377-0.824,0.566-1.351,0.566c-0.538,0-0.994-0.188-1.367-0.566
	c-0.373-0.377-0.561-0.828-0.561-1.353c0-0.536,0.188-0.989,0.561-1.361C94.109,20.343,94.565,20.157,95.104,20.157z"/>
<path fill="#FFFFFF" d="M120.386,6.249l-0.131-2.919c-0.974-0.645-1.993-1.126-3.059-1.443c-1.066-0.317-2.179-0.476-3.338-0.476
	c-2.952,0-5.317,0.896-7.094,2.689c-1.777,1.793-2.665,4.193-2.665,7.2c0,2.11,0.451,3.991,1.353,5.642
	c0.902,1.651,2.185,2.958,3.847,3.92c1.662,0.962,3.417,1.443,5.265,1.443c1.465,0,2.914-0.169,4.347-0.508
	c1.071-0.251,2.148-0.776,3.23-1.575l0.345,0.328c-0.229,0.503-0.442,1.012-0.64,1.525c-1.279,0.634-2.566,1.113-3.862,1.435
	s-2.6,0.484-3.912,0.484c-2.689,0-5.055-0.519-7.094-1.558c-2.039-1.039-3.605-2.474-4.698-4.305
	c-1.094-1.832-1.641-3.901-1.641-6.208s0.552-4.371,1.656-6.191c1.104-1.821,2.666-3.231,4.683-4.231
	c2.018-1,4.497-1.501,7.438-1.501c1.542,0,3.346,0.251,5.412,0.754c1.028,0.241,1.864,0.421,2.51,0.542
	c-0.492,1.17-0.776,2.821-0.854,4.953H120.386z"/>
<path fill="#FFFFFF" d="M123.863,11.989c0-3.597,1.159-6.495,3.479-8.692C129.662,1.099,132.753,0,136.615,0
	c3.785,0,6.753,1.02,8.903,3.059c2.15,2.039,3.225,4.748,3.225,8.126c0,3.641-1.247,6.687-3.741,9.136
	c-2.495,2.449-5.641,3.674-9.438,3.674c-2.374,0-4.42-0.481-6.138-1.443c-1.718-0.962-3.075-2.367-4.07-4.215
	C124.36,16.489,123.863,14.373,123.863,11.989z M127.192,10.645c0,2.471,0.424,4.623,1.272,6.454
	c0.848,1.832,1.983,3.204,3.406,4.117c1.423,0.913,3.048,1.37,4.875,1.37c1.696,0,3.18-0.388,4.449-1.165
	c1.27-0.776,2.269-1.935,2.996-3.477c0.728-1.542,1.092-3.417,1.092-5.625c0-2.318-0.402-4.3-1.207-5.945s-1.907-2.884-3.308-3.715
	s-3.059-1.247-4.975-1.247c-1.751,0-3.261,0.366-4.53,1.099c-1.27,0.733-2.266,1.807-2.988,3.223
	C127.554,7.148,127.192,8.786,127.192,10.645z"/>
<path fill="#FFFFFF" d="M174.346,3.87l-4.875,10.145c-1.828,3.809-3.327,7.135-4.498,9.98h-0.656
	c-0.404-0.974-1.564-3.475-3.479-7.503L154.96,4.326v12.681c0,2.953,0.118,4.629,0.354,5.028s0.97,0.599,2.201,0.599h0.609v1.033
	c-1.523-0.077-2.761-0.115-3.714-0.115c-0.69,0-2.065,0.038-4.126,0.115v-1.033h1.066c0.722,0,1.203-0.104,1.443-0.312
	s0.388-0.585,0.442-1.132c0.143-1.531,0.214-3.182,0.214-4.953V6.954c0-2.241-0.05-3.723-0.147-4.445
	c-0.044-0.372-0.205-0.656-0.484-0.853c-0.278-0.197-0.834-0.295-1.665-0.295h-0.869V0.328c1.903,0.077,3.101,0.115,3.593,0.115
	c0.623,0,1.51-0.038,2.658-0.115c1.324,2.943,2.851,6.187,4.58,9.731l4.318,8.878l3.988-8.222c1.4-2.877,2.998-6.34,4.792-10.388
	c1.367,0.077,2.329,0.115,2.887,0.115c0.646,0,1.81-0.038,3.493-0.115v1.033h-1.071c-0.967,0-1.559,0.167-1.772,0.5
	c-0.214,0.334-0.321,1.534-0.321,3.6v11.99c0,2.668,0.112,4.199,0.338,4.592s0.854,0.59,1.888,0.59h0.939v1.033
	c-1.52-0.077-2.974-0.115-4.362-0.115c-1.531,0-3.133,0.038-4.806,0.115v-1.033h1.082c0.864,0,1.387-0.188,1.566-0.566
	c0.181-0.377,0.271-1.998,0.271-4.863V3.87z"/>
</svg>
