<?xml version="1.0" encoding="utf-8"?>
<!-- Generator: Adobe Illustrator 16.0.0, SVG Export Plug-In . SVG Version: 6.00 Build 0)  -->
<!DOCTYPE svg PUBLIC "-//W3C//DTD SVG 1.1//EN" "http://www.w3.org/Graphics/SVG/1.1/DTD/svg11.dtd">
<svg version="1.1" id="图层_1" xmlns="http://www.w3.org/2000/svg" xmlns:xlink="http://www.w3.org/1999/xlink" x="0px" y="0px"
	 width="1920px" height="1440px" viewBox="0 0 1920 1440" enable-background="new 0 0 1920 1440" xml:space="preserve">
<path fill="#096EA2" d="M916,596c-2.924,0-3.245-23-7-23c0-3.376-3.276-27-5-27c0-4.969-5-7.714-5-12c-5.377-3.584-5.79-9.527-11-13
	c-2.558-3.613-7.544-13-11-13c-1.245-4.435-5.824-10-9-10c0.21,12.816,4,25.442,4,38c1.042,0,7.81,16.428,9,20
	c2.073,1.037,5,7.025,5,9c1.278,0,3,4.513,3,6c2.899,1.451,5.869,8.608,7,12c1.337,4.011,3,6.854,3,11
	c-6.764-3.779-12.995-7.123-21-7c2.929-5.646,2-10.116,2-16c-1.475,0-2.31-2.515-3.712-3.626c-1.083-0.858-5.83-0.374-7.288-0.374
	c0-4.756-10.628-1.338-13-1c0,1.927-6.502,1.002-8,4c-4.282,0-7.796,6.618-10,0c-6.313-0.631-10.209-2-16-2c0-1.918-8.144-4-9-4
	c0,3.079-1.397,6.288-0.433,9.066C813.764,576.514,819,581.857,819,585c-5.794,0-8.133,3.321-13.667,5.333
	c-4.634,1.686-6.136,3.756-9.23,5.35c-2.73,1.405-2.658,3.317-5.103,3.317c0.396,4.545,2.951,7.253,7,9c-0.243,3.854,0.374,17-3,17
	c4.01,2.762-4,18.069-4,21.5c0,3.765-2.269,6.369-3,11.5c-2.209,0-3,9.611-3,11c-5.157,2.58-4.1,21-8,21c0,5.484-6.935,17-13,17
	c0.926,3.498,2.562,5,6,5c-1.087,3.263-3.096,5.637-2,7c-0.074,2.014-7.387,20-8,20c-0.947,3.784-8.333,27-13,27
	c2.1,1.284-2.093,8.691-3,10c-3.467,2.311-3.887,5.656-5,9c-1.693,0.848-3.056,9-5,9c-1.702,5.102-2.299,0.896-4,6
	c-1.301,3.903-3.124,4.613-4,9c-1.465,0-4,5.816-4,7c-5.12,0-2.882,8-6,8c0,2.207-2.074,7-5,7c-0.826,3.076-2.766,5.502-4.453,8.123
	c-0.448,0.693-4.944,7.41-4.91,6.822c-0.182,3.127-5.459,4.596-5.323,6.821c0.26,4.303-6.531,8.234-8.674,11.021
	C676.958,877.686,682.794,849,683,849c0.368-4.049,2.945-11.355,1.291-13.939C683.042,833.11,688,822.199,688,819
	c0-3.833,3.601-8.799,2-12c5.306,0,1.196-20,9-20c-0.984-3.025,2.04-19,4-19c1.225-4.896,3.174-4.871,4.333-10.667
	c0.762-3.808,2.682-3.471,3.667-7.333c5.25,0,9.869-9.826,13-14c3.831,0,8.834-9.793,11-12.5c3.288-4.109,4.267-3.433,6-9.5
	c1.24,0,4.065-3.96,4.405-5.242c1.594-6.018,9.079-8.781,10.595-15.758c4.64-1.286,10-8.369,10-13c3.498,0-1.547-8.856-2.5-10
	c-3.951-4.74-10.539-4.148-16.5-5c2.853-5.135,6.752-13.875,11-16c0-1.88,3.905-5.952,6-7c-0.555-2.166,0.445-3.499,3-4
	c1-3.333,2-6.667,3-10c2.318-1.158,4.029-4.505,5.222-6.718c1.901-3.527,3.151-2.733,2.666-8.083
	C777.533,609.291,777.142,607,773,607c-6.211,0-6.67-1.396-12,5c-2.994,0-5,2.66-5,5c-1.617,0.41-5.056,1.443-5.272,3.153
	c-0.232,1.817-1.482,1.999-3.228,2.347c-2.228,0.445-5.794,3.479-6.5,6.5c-8.188,2.021-8.032,6.345-16,9c0,3.745-4,1.669-4,5
	c-3.973,0.994-7.18,7-11,7c2.236-6.711,7.804-10.412,10-17c1.247-3.74,3.1-2.56,4-6c3.465,0,2.363-5.454,7-7c0-2.577,3.46-9,7-9
	c1.112-3.341,3.478-11,8-11c1.577-6.795,6.019-9.539,9-15c0.791,0,10.154-14.463,11-17c2.487-1.243,6.034-7.104,7-10
	c2.907-1.452,6.174-7.699,7-11c2.974-1.486,5-7.099,5-10c4.627-2.313,4.623-12.164,4.236-17.712
	c-0.359-5.157-3.29-10.184-8.597-10.281c-3.428-0.063-8.162-0.157-10.64-3.006c-3.021,0.078-11,4.689-11,8
	c-5.185,0-8.945,6.961-13.38,8.7c-3.406,1.336-3.686,4.113-7.12,4.8c-2.374-0.138-3.874,1.028-4.5,3.5c-2.7-1.066-4.533-0.4-5.5,2
	c-2.533,3.377-8.337,4.004-12.326,2.497c-0.825-0.578-1.216-1.41-1.174-2.497c-1.843-0.505-3.464-1.404-4.863-2.696
	c-3.629-3.119-3.664-5.185-8.137-6.304c0-2.884-5.088-5.291-8-6c-0.938-3.751-2.269-5-5-5c0.567,3.972,4.729,21,7,21
	c0,1.818,1.609,9,3,9c0,3.599,5,7.483,5,11c5.146,2.574,6.67,7.223,12,9c4.142,1.381,7.717,4.143,12,3.667
	c5.367-0.596,8.951-1.092,12-5.667c2.384-1.688,10.049-10,12-10c-0.825,2.063-2.786,10-5,10c0,3.2-3,5.854-3,9
	c-3.132,0-4.367,17-9,17c0,3.345-1.716,8.359-5,10c0,4.691,0.039,6.308-4,9c-1.204,7.222-7.834,12.497-6,18
	c-4.957,0-2.063,4.532-5,6c0,4.008-3,4.154-3,9c-5.046,2.525-2.938,7.292-7,10c-1.503,6.013-5.515,11.771-11,15
	c0,7.289,16,10.376,16,7c1.829-0.479,3.682-0.839,5.558-1.075c3.598-0.771,3.814-3.715,7.442-4.925c4.897-1.633,9.598-12,14-12
	c-1.258,3.771-7,5.585-7,10c-4.01,2.006-1.005,5.004-5,7c0,3.62-4.135,8.09-7,10c0,4.172-1.845,10-6,10c0.945,1.89,0.685,6-3,6
	c-1.035,4.139-0.683,5.789-4,8c0,1.308-0.677,4-2,4c0.177,2.632-0.823,3.632-3,3c0.06,1.439-0.274,2.772-1,4
	c-2.491,0-6.276,11.021-7.573,13.629c-3.291,6.616-9.771,10.041-11.855,17.265c-1.151,3.988-6.57,7.771-6.57,12.106
	c-2.779,4.913-4.863,8.861-8,12c0.532,10.736,8.518,7,16,7c1.146-2.293,10.793-11,14-11c-0.794,4.767-2.546,23-6,23
	c-0.306,3.98-2.366,25-5,25c-0.381,3.813-4.044,26-5,26c0,8.984-1.302,18.077-2.213,27.961c-0.061,1.875-0.656,3.555-1.787,5.039
	c0,4.412,2,2.292,2,6c1.704,2.173,6.57,3.203,9.119,3.25c2.73,0.049,3.063-2.25,5.881-2.25c5.013-5.729,9.323-8.269,15-13
	c0-5.917,6.48-9.004,8-16c5.016,0,2.417-9.707,7-12c0-2.293,2.306-7.652,5-9c-0.686-3.631-0.804-7.097,3-9c0.938-3.748,3-3.993,3-7
	c3.212-1.604,0.02-6,2-6c0-7.212,9.131-11.468,7-20c4.449,0,6.534-16,9-16c0-1.447,5.652-15,7-15c0-7.291,7-12.549,7-20
	c2.482,0,6.813-15.372,6-17c1.145,0,3.625-8.417,6-10c2.667-3,5.333-6,8-9c3.876,0,3.124-4,7-4
	c3.536-4.713,6.403-5.959,10.477-9.683c2-1.829,3.778-3.64,6.523-4.317c0-2.658,1.777-4,4-4c2.756-4.136,10-5.764,10-12
	c4.967-1.384,11-7.673,11-11c5.635-1.534,6.716-6.214,11.029-9.459c2.168-1.631,4.539-3.149,5.971-5.541
	c3.597,0,5.15,6.17,6.907,9.164C860.279,654.207,864,659.323,864,663c1.625,0,3.93,5.606,4.862,7.629
	c2.808,6.097-7.532,19.435-12.354,23.406C848.808,700.38,868,712.657,868,700.5c0-2.848,3.476-8.237,6-9.5c0-2.237-0.423-4.576,2-7
	c3.284,9.854,8.319,15.92,10,26c3.763,1.883,0.236,4.119,4,6c0,4.104,1,4.667,1,9c1.609,0,2.634,9.308,4.124,11.595
	c2.627,4.034,10.14,8.571,14.545,6.399c5.537-2.729,3.232-9.542-1.669-11.994c0-5.314-7.397-7.992-8.5-13.5
	c-0.592-2.96-3.791-5.512-5.5-9.5c-3.284,0-3.308-5.234-4.989-8.098C887.445,697.235,883.521,686,882,686c0-4.5-1,0.833-1-5
	c-4.718,0,0.146-5.946,0.791-7.46c1.442-3.384,2.209-1.426,2.209-4.54c0.705,0,5-3.966,5-6c1.415-2.366,3.097-4.566,4.146-7.14
	c0.949-2.328,2.931-2.833,3.186-4.455c0.55-3.501,2.67-0.655,2.67-5.405c1.323,0,2-2.692,2-4c4.013-3.011,8-9.764,8-14
	c3.547-1.772,3.95-11,7-11c0-2.083,0.979-12-1-12C914.649,601.949,916.949,599.205,916,596C915.667,596,916.921,599.109,916,596z
	 M725,719c3.735-1.866,2.629-5.972,6-8.5c2.052-1.539,6-7.265,6-9.5c3.451-2.589,3.625-4.75,7-7c0-2.313,3.551-7,6-7
	c0,2.503-1.763,9.382-5,11c0,4.081-2,1.459-2,7c-0.968,2.021-2.749,2.822-4.469,4.058C736.454,710.549,731,715.826,731,718
	c-3.532,0.961-6,2.504-6,6c-1.128,0.34-1.907,1-3,1C722.532,722.716,723.426,720.752,725,719
	C725.667,718.667,723.451,720.724,725,719z M693,749c-1.165,4.283-5.051,5.314-8,9c-4.533,0-6.104,7-11,7
	c1.347-4.042,1.341-5.561,5-8c1.437-4.309,5-7.104,5-11c2.312,0,2.786-3.158,3-5c3.088,0,2.805-4.87,6-7c0-3.45,2.791-2.955,3.5-6.5
	c0.867-4.337,4.312-4.744,5.5-9.5c3.347,0,7.774-11,11-11c-2.343,5.01-4.26,14.219-8.202,16.189
	c-0.063,0.862,0.338,1.134,1.202,0.811c0,0.786-1.003,3-2,3c0,2.326,0.242,10-2,10c0,2.199-0.762,4.921-2.286,7.035
	C698.45,745.79,695.705,748.292,693,749C692.321,751.495,695.762,748.277,693,749z M858,581c1.44-0.699,2.426-2,4-2
	C861.644,580.068,858,585.4,858,581C859.275,580.382,858,581.333,858,581z M799,678c0.07-1.631,0.737-2.298,2-2
	C801.738,676.34,799.295,677.834,799,678C799.333,677.333,799.074,677.958,799,678z M803,666c-1.054,1.927-2.938,3-5,3
	c-1.644,6.571-1.514,1.688-3.683,5.898c-1.44,2.798-2.024,4.102-5.317,4.102c1.797,5.396-1,1.511-1,6c-2.719,1.36-4.421,7-7,7
	c0.988-2.965,3.424-12,5-12c0-4.242,4.521-10.958,3-14c1.887,0,7-19.44,7-23c2.494,0,6.298-22.902,6.369-26.722
	c0.052-2.812,0.844-5.296,2.633-7.571C806.38,606.954,810,608.771,810,606c5.593,0,13.048-4.768,19-7c0.632,1.898,4.132,8,5,8
	c0,2.159,2.752,6.5,5,8c-4.493,5.617-6.244,10.204-12,15c0,3.358-2,1.642-2,5c-3.169,2.112-4.705,5.557-7,9
	c-2.194,0-6.603,9.688-8.94,12.11c-2.399,2.486-2.291,4.152-5.33,5.695C802.612,662.374,803.652,664.809,803,666
	C802.742,666.471,804.979,662.384,803,666z M845,642c-0.271,0-7.751,4.502-8,5c-0.795,0-9.256,8.578-11,10
	c0,2.003-2.804,2.717-4.446,3.293c-2.973,1.042-3.224,2.729-6.235,4.749C811.844,667.372,808.131,673,805,673
	c0-2.32,6.247-7.663,8-10c3.366,0,10-8.132,10-11c6.478-1.664,7.432-6.573,12-10c0-4.469,11-6.7,11-12c2.056,1.712,2.711,4.501,5,6
	C849.4,638.451,846.499,639.448,845,642C844.333,642,846.597,639.281,845,642z M850,597c0,0.667,0,1.333,0,2
	c-0.553,0-3.115-7.171-4-9c2.667,1.119,5.06,1.931,8,2C853.046,594.065,852.032,595.823,850,597
	C850,597.667,852.155,595.752,850,597z M856,618c2.664-1.742,3.074-4.536,6-6c0-4.688,5-4.398,5-8c0-1.98,4.08-3.092,5-7
	c5.014,1.88,12.578,1.553,11.12,6.381c-1.02,3.377-5.184,9.619-7.12,9.619c0,1.955-9.081,11-12,11c0,2.556-1-0.889-1,3
	C857.757,628.749,857.8,622.296,856,618C858.007,616.688,857.252,620.989,856,618z M897,614c-3.052,0-5.639,13.084-5,15
	c-3.197,0-6,10.563-6,14c-3.593,0-3.914,12-6,12c0,3.356-2.756,3.78-3.5,7.5c-0.425,2.125-1.035,3.034-2.5,4.5
	c-1.019-3.563-5.411-20-7-20c-1.831-5.494-7.063-12.349-2.367-17.581C867.353,626.392,878.387,616,880,616
	c2.854-3.332,4.063-3.736,8.231-5.396C891,609.5,895.411,605,898,605C896.925,607.877,898.074,611.098,897,614
	C896.667,614,897.963,611.396,897,614z"/>
<path fill="#096EA2" d="M1254,636c-0.093-8.359-4.478-14-12-14c-1.646,0-11-0.898-11-2c-3.356,0-9.607-6.052-10.661-0.705
	c-0.966,4.902,0.835,7.815,3.661,11.705c3.012,2.007,7.537,4.077,9,7C1242.172,640.295,1244.629,641.527,1254,636
	C1253.92,628.767,1248.906,639.005,1254,636z"/>
<path fill="#096EA2" d="M1156,520c-3.826,0-5.938,0.03-8-1c0,1.5-1,1.5-1,0c-2.813,1.406-10.231,0.634-15,1c0,1.56-7.699,2-9,2
	c0,1.591-14-1.803-14,5c-3.771-1.095-13.306,0.608-15,4c-2.955-1.477-5.679,2-9.5,2c-3.229,0-7,0.999-8.5,4
	c-10.541,2.342-14.815,7.454-25,10c-1.687,3.368-5.316,2.631-7,6c-4.188,0.838-6.697,4-10,4c-1.902,3.803-6.193,2.384-8,6
	c-4.07,0-4.821,5-9,5c0,1.405-5.731,2.878-7.5,5c-3.063,3.677-5.713,1.424-7.5,5c-2.121,1.911-3.952,4.155-6.688,5.245
	c-1.83,0.729-8.312,4.918-8.312,7.755c-3.445,0-1.658,1.211-4,3c0,2.144-3.578,0.285-5,0c-1.536-3.874-3.013-7.964-2-11
	c-3.022,0-2.187-7.175-2-10c-2.334,1-3.334,0.667-3-1c-4.619,6.467-10.594,9.773-13,17c-4.979,0-12,2.932-12,9
	c-5.201,0-2.33,17.369-2,21c1.975,0.988,5,4.655,5,7c1.646,0.548,7,3.604,7,5c4.437,1.479,4.478,5.675,7.629,9.157
	c2.443,2.698,6.029,3.161,7.371,5.843c6.938,0,9.138,2.574,16-2c0-1.8,2.494-14,5-14c0-3.176,2.906-10.452,6-12
	c0-2.845,0.994-4.997,4-7c1.514-4.543,2.209-6.156,6-9c1.869-7.481,9.862-13.616,16-18c2.687-5.372,10.345-10.917,15.236-13.935
	c4.888-3.017,7.952-9.564,12.926-11.079c3.368-1.025,3.871-3.575,7.09-5.325c4.486-2.438,7.582-3.329,9.748-7.661
	c1.673,0,9-4.169,9-5c1.837,0,6-3.139,6-4c3.479-0.497,6.482-2,9-2c0-2.313,11.184-4,13-4c-3.069,7.764-5,17.384-5,24
	c-2.19,0-0.414,21-5,21c1,3,0,4-3,3c-2,3.667-4,7.333-6,11c-4.342,2.894-5.575,5.451-8.198,9.733
	c-2.591,4.23-7.327,6.844-8.802,11.267c-1.438,4.319-6.336,6.796-7,13c-5.771,0-6.371,20-10,20c0,8.866-0.271,9.674,6,17
	c4.623-0.132,6.948-4.52,10.184-4.379c2.216,0.096,3.171-4.492,6.316-5.121c4.341-0.868,5.396-5.5,9.5-5.5c1.514-2.271,6.78-8,9-8
	c-0.001,5.694-0.018,11.389-0.016,17.083c0.002,3.584,1.709,7.292-2.134,8.389c-3.814,1.091-0.764-1.557-4.881,1.881
	c-8.895,7.427-16.021,9.592-23.721,18.147c-1.048,2.41-2.798,3.243-5.25,2.5c0,2.238-4.39,4.658-6,6
	c0,3.794-6.054,4.169-7.841,7.078c-0.757,0.945-1.478,1.92-2.159,2.922c-2.885,0-1.798,1.838-4.5,4
	c-3.721,2.977-6.023,5.161-9.847,9.131c-4.831,5.018-11.02,7.432-14.665,14.268c-4.221,7.91-25.163-4.94-32.951-4.875
	c-9,0.076-16.127-3.916-17.898,8.266c-1.337,9.199,0.737,16.562,3.086,25.624c2.672,10.305,5.851,19.107,15.775,21.588
	c0,1.333,8.176,1.912,9.609,1.687c6.145-0.97,11.092-4.435,15.442-8.694c3.779-3.701,7.656-5.832,8.947-10.991
	c3.491-1.744,0.51-3.254,4-5c1.252-3.758,3.972-3.91,5.217-7.54c3.154-9.194,9.263-3.46,16.783-3.46c0,3.725,22.734,2,25.6,2
	c2.33,0,14.4,0.91,14.4-1c4.829-0.689,8.119-3.176,11.5-2.5c2.641,0.528,7.349-1.718,10.5-3.5c0,0.41,4.194-4.756,4.632-4.811
	c3.729-0.461,2.909-4.189,6.368-4.189c1.637-2.456,11-5.721,11-9c4.078,3.572,6,11.726,6,16c2.754,0,6,15.557,6,18
	c1.684,0,8.089,29.242,8.25,31.5c0.323,4.525,6.059,43.5,6.75,43.5c0,14.617,5,26.666,5,42c2.457,0,4.015,25.345,4,26
	c-1.531,3.061-1,8.18-1,13c-0.24,0-5.378,17.51-6,20c-0.197,0,3.119,4.399,4,5.5c2.096,2.619,3.445,3.736,6.791,3.371
	c7.471-0.815,5.553-10.871,6.209-10.871c0-4.131-1-6.215-1-11c-5.736-2.866,0.734-12.131-5-15c-0.19-3.809-1.029-31-4-31
	c0.01-2.135-0.171-21-3-21c0.079-12.737-4-23.296-4-34.5c0-6.924-3-15.537-3-22c0-1.367,1.041-11.5-1-11.5c0-5.018-0.778-6.553,0-12
	c-2.003,0-2.262-9.23-1.297-10.721c1.114-1.721-1.703-6.633-1.703-9.279c-0.469,0-1-8.431-1-10c-0.644,0-1.21-15-4-15
	c0-3.166-2.18-8.282-4.158-11.705c-3.16-5.468,2.158-5.061,2.158-9.295c5.176,0,6.971-11.549,11.729-12.909
	c3.341-0.954,4.556-4.294,6.992-6.36c0.934-1.044,1.558-2.247,1.873-3.611c1.299-3.053,4.451-2.443,5.996-4.997
	c3.687-6.096,6.658-14.257,6.854-21.408c0.055-2-0.977-5.714-2.446-5.714c0-3.542,0.658-8-3-8c-2.363-12.179-12.732-8-20-8
	c0,3.014-15,3.079-15,7c-3.749,0-3.785,2-7,2c-1.684,3.364-4.868,2.178-8.02,4.188c-1.093,0.793-2.306,1.308-3.641,1.542
	c-5.884,1.041-0.883,1.31-5.785,2.913c-3.669,1.201-7.104,5.356-10.556,5.356c2.14-5.697-3.041-17.979,3-21
	c0.848-1.723,1.037-3.507,0.567-5.351c-0.807-3.932,1.222-4.184,4.1-6.649c2.118-1.816,4.984-6,7.333-6
	c1.813-5.443,7.836-7.37,11.5-12.5c3.745-5.243,11.386-8.276,14.5-14.5c3.451-2.589,3.625-4.75,7-7c-0.646-2.546,0.687-3.546,4-3
	c0.852-3.241,2.86-6.178,4.965-8.724c5.822-7.047,11.213-12.807,14.035-21.276c0.799,0,3.16-5.773,5-7
	c0.924-4.623,2.648-5.926,1.155-10.774C1172.514,526.645,1163.84,522.663,1156,520C1154.334,520,1165.611,523.265,1156,520z
	 M1005,739c-4.005,0-7.424,6.102-10,9c-3.068,1.535-6.277,5.596-9,9c-4.269-4.21-2.966-14.766-2.435-20.086
	C984.219,730.393,1005,737.311,1005,739C1004.334,739,1005,738.667,1005,739z M1092,687c0,5.838-1.812,3.618-4,8
	c-2.445,0-5.214,4.896-7.667,7c-8.05,6.899-4.201,17.896-3.333,27c-3.025,0.092-19,4.091-19,5c-8.574,0-15.333,2-25,2
	c0-0.78,4.906-5.807,6-7c3.984-1.99,3.327-6.402,7-9.667c5.89-5.236,11.096-16.031,18-18.333c1.638-8.195,12-9.729,12-17
	c2.665-1.332,6.88-4.552,9.26-6.773c2.771-2.585,3.74-1.338,3.74-5.227c1.748-0.818,3.235-3,5-3
	C1092.138,674.18,1095.845,682.59,1092,687C1092,688.667,1094.568,684.054,1092,687z M1121,720c0,2.83-4.723,4.681-6.048,7.053
	c-0.723,1.294-1.276-1.266-1.264-1.253c1.521,1.521-9.688,4.586-9.688,7.2c-3.004-1.038-3.204,0-5,0c3.994-10.314-8.164-18.441,4-25
	c4.161,0,5.924-3.116,10.545-0.058c3.265,2.161,8.515,7.692,9.455,12.058C1122.334,720,1121.666,720,1121,720
	C1121,720.667,1121.666,720,1121,720z M1106,662c0-2.791,2.858-4,5-4c0-0.257,5.788-4.157,7.5-4.5c4.993-0.999,6.423-3.808,11.5-5.5
	c2.307-0.769,13-4.826,13-6c5.51,0,10.332-4.997,17.042-3.571c9.819,2.086,1.351,35.877-4.042,38.571c0,6.421-10,11.297-10,17
	c-5.582,4.465-7.037,10.564-13,15c-4.779-6.372-11.082-14-18-14c0-0.807-16.119-4.302-19-4c1.656-4.604,0.467-10.452,0.818-15.258
	c0.104-1.417,0.166-3.576,1.182-4.742C1098,664.612,1100.296,664.852,1106,662C1106,661.333,1103.334,663.333,1106,662z M1097,602
	c-0.705,0-1.139,11.042-1.2,12.4c-0.267,5.866-0.533,11.732-0.8,17.6c-2.961,1.407-5.292,2.472-6.801,5.109
	c-1.726,3.016-7.199,2.814-7.199,6.891c-4.565,0-7.088,7-12,7c0.316-2.844,4.872-15,4-15c2.287-6.862,3.103-9.186,4.993-14.767
	c1.597-4.708,3.169-6.206,4.007-11.233c1.615,0.316,2.282-0.684,2-3c4.357-2.177-1.002-3.666,4-7c0-3.682,4-4.318,4-8
	c1.739,0,1.943-9,6-9C1095.756,589.017,1098.729,595.82,1097,602C1096.666,602,1098.682,595.995,1097,602z M1160,537
	c-2.717,0-1.283,7-4,7c0,5.186-2.874,8.365-4,14c-3.134,1.568-2.365,9-5,9c0,3.542-2.85,3.1-3.5,7c-0.465,2.787-2.116,5.809-4.5,7
	c0,2.387-3.878,10-7,10c0,3.62-5.113,4.905-6.707,8.97c-1.938,4.947-6.916,7.834-10.219,11.107
	C1112.573,613.555,1105.506,624,1102,624c0.6-3.003,0.142-4.57,3-6c0.113-0.286-0.496-6.034-0.334-7.667
	c0.289-2.883,0.687-5.008,3.334-6.333c0.182-0.491-0.238-7.096,0-9c4.152-2.768,3-4.271,3-9c5.028-3.352,2-1.641,2-5
	c2.498,0,2.57-12,6-12c0-5.009,4-5.791,4-11c2.396-1.197,4-5.322,4-8c2.979-1.489,4.959-5.567,8-8c0-1.172,5.806-8,6-8
	c2.647-7.036-11-8.065-11-10c6.471,0,12.677-1,20.2-1C1158.514,523,1160,529.018,1160,537C1159.666,537,1160,534,1160,537z"/>
<path fill="#096EA2" d="M667.239,954.867h8.819v79.734h33.958v8.52h-42.777V954.867z"/>
<path fill="#096EA2" d="M753.513,976.166c10.057,0,18.391,3.64,25.002,10.919c6.01,6.64,9.015,14.5,9.015,23.578
	c0,9.12-3.176,17.09-9.526,23.908c-6.351,6.82-14.516,10.229-24.492,10.229c-10.017,0-18.201-3.409-24.551-10.229
	c-6.351-6.818-9.526-14.788-9.526-23.908c0-9.038,3.004-16.878,9.015-23.518C735.062,979.826,743.416,976.166,753.513,976.166z
	 M753.483,984.386c-6.984,0-12.985,2.579-18.002,7.739c-5.017,5.159-7.526,11.399-7.526,18.719c0,4.72,1.144,9.119,3.432,13.199
	c2.287,4.079,5.378,7.229,9.272,9.449c3.893,2.22,8.168,3.329,12.824,3.329c4.655,0,8.93-1.109,12.824-3.329
	c3.893-2.22,6.984-5.37,9.272-9.449c2.287-4.08,3.432-8.479,3.432-13.199c0-7.319-2.519-13.56-7.557-18.719
	C766.417,986.965,760.426,984.386,753.483,984.386z"/>
<path fill="#096EA2" d="M868.104,977.846v65.275h-8.279v-11.219c-3.52,4.28-7.47,7.499-11.849,9.659
	c-4.38,2.159-9.17,3.239-14.369,3.239c-9.239,0-17.129-3.35-23.668-10.049c-6.54-6.699-9.81-14.85-9.81-24.448
	c0-9.398,3.3-17.438,9.899-24.118s14.539-10.02,23.818-10.02c5.359,0,10.208,1.14,14.549,3.42
	c4.339,2.279,8.149,5.699,11.429,10.259v-11.999H868.104z M834.537,984.266c-4.674,0-8.989,1.149-12.944,3.446
	c-3.956,2.297-7.102,5.523-9.439,9.679c-2.337,4.154-3.505,8.549-3.505,13.183c0,4.596,1.178,8.99,3.535,13.185
	c2.356,4.194,5.523,7.461,9.498,9.798c3.975,2.338,8.24,3.506,12.795,3.506c4.594,0,8.949-1.158,13.064-3.476
	c4.114-2.317,7.28-5.453,9.498-9.408c2.217-3.955,3.326-8.41,3.326-13.364c0-7.55-2.487-13.862-7.461-18.937
	C847.93,986.803,841.808,984.266,834.537,984.266z"/>
<path fill="#096EA2" d="M952.158,952.647v90.474h-8.28v-11.219c-3.52,4.28-7.469,7.499-11.849,9.659
	c-4.379,2.159-9.17,3.239-14.369,3.239c-9.239,0-17.129-3.35-23.668-10.049s-9.809-14.85-9.809-24.448
	c0-9.398,3.3-17.438,9.899-24.118c6.599-6.68,14.539-10.02,23.818-10.02c5.359,0,10.209,1.14,14.549,3.42
	c4.339,2.279,8.149,5.699,11.429,10.259v-37.197H952.158z M918.59,984.266c-4.674,0-8.989,1.149-12.944,3.446
	c-3.956,2.297-7.102,5.523-9.439,9.679c-2.337,4.154-3.505,8.549-3.505,13.183c0,4.596,1.178,8.99,3.535,13.185
	c2.357,4.194,5.523,7.461,9.498,9.798c3.975,2.338,8.24,3.506,12.795,3.506c4.595,0,8.949-1.158,13.064-3.476
	c4.114-2.317,7.28-5.453,9.498-9.408c2.217-3.955,3.326-8.41,3.326-13.364c0-7.55-2.487-13.862-7.461-18.937
	S925.861,984.266,918.59,984.266z"/>
<path fill="#096EA2" d="M974.087,950.968c1.911,0,3.544,0.681,4.897,2.04c1.354,1.36,2.031,3,2.031,4.92
	c0,1.88-0.678,3.5-2.031,4.859c-1.354,1.36-2.986,2.04-4.897,2.04c-1.872,0-3.485-0.68-4.84-2.04
	c-1.354-1.359-2.03-2.979-2.03-4.859c0-1.92,0.677-3.56,2.03-4.92C970.602,951.648,972.215,950.968,974.087,950.968z
	 M969.917,977.846h8.399v65.275h-8.399V977.846z"/>
<path fill="#096EA2" d="M995.774,977.846h8.399v11.699c3.359-4.479,7.079-7.829,11.159-10.049c4.079-2.22,8.52-3.33,13.319-3.33
	c4.879,0,9.209,1.24,12.988,3.72c3.78,2.48,6.569,5.819,8.37,10.02c1.8,4.199,2.699,10.739,2.699,19.618v33.598h-8.399v-31.138
	c0-7.52-0.312-12.539-0.935-15.059c-0.973-4.32-2.84-7.569-5.6-9.75c-2.76-2.179-6.361-3.27-10.801-3.27
	c-5.081,0-9.632,1.68-13.651,5.04c-4.021,3.359-6.671,7.52-7.95,12.479c-0.801,3.24-1.2,9.16-1.2,17.759v23.938h-8.399V977.846z"/>
<path fill="#096EA2" d="M1126.984,977.846h8.399v52.017c0,9.159-0.8,15.858-2.399,20.099c-2.2,5.999-6.021,10.619-11.459,13.858
	c-5.44,3.24-11.979,4.859-19.619,4.859c-5.6,0-10.629-0.793-15.089-2.376c-4.46-1.585-8.09-3.711-10.889-6.378
	c-2.8-2.669-5.38-6.569-7.739-11.704h9.119c2.482,4.319,5.687,7.52,9.61,9.6c3.924,2.079,8.79,3.119,14.597,3.119
	c5.726,0,10.563-1.066,14.507-3.198c3.944-2.134,6.758-4.814,8.439-8.042c1.682-3.229,2.522-8.441,2.522-15.638v-3.359
	c-3.162,4-7.026,7.07-11.591,9.209c-4.564,2.141-9.409,3.21-14.533,3.21c-6.006,0-11.651-1.489-16.937-4.47
	c-5.285-2.979-9.368-6.989-12.251-12.029c-2.883-5.039-4.323-10.579-4.323-16.618s1.5-11.67,4.504-16.889
	c3.003-5.22,7.156-9.35,12.461-12.39c5.306-3.039,10.9-4.56,16.786-4.56c4.884,0,9.438,1.011,13.663,3.03
	c4.224,2.02,8.297,5.35,12.221,9.989V977.846z M1102.207,984.266c-4.761,0-9.18,1.15-13.26,3.449c-4.079,2.301-7.28,5.48-9.599,9.54
	c-2.32,4.06-3.48,8.449-3.48,13.169c0,7.16,2.4,13.079,7.2,17.759c4.799,4.68,11.019,7.02,18.658,7.02
	c7.719,0,13.929-2.319,18.629-6.96c4.699-4.64,7.049-10.739,7.049-18.299c0-4.92-1.079-9.309-3.239-13.169
	c-2.16-3.859-5.22-6.909-9.18-9.149C1111.026,985.386,1106.767,984.266,1102.207,984.266z"/>
<path fill="#096EA2" d="M1162.622,1029.922c2.04,0,3.779,0.72,5.22,2.16c1.439,1.439,2.16,3.2,2.16,5.279
	c0,2.04-0.721,3.79-2.16,5.25c-1.44,1.459-3.18,2.189-5.22,2.189s-3.779-0.73-5.22-2.189c-1.439-1.46-2.16-3.21-2.16-5.25
	c0-2.079,0.721-3.84,2.16-5.279C1158.843,1030.642,1160.582,1029.922,1162.622,1029.922z"/>
<path fill="#096EA2" d="M1196.64,1029.922c2.04,0,3.779,0.72,5.22,2.16c1.439,1.439,2.16,3.2,2.16,5.279
	c0,2.04-0.721,3.79-2.16,5.25c-1.44,1.459-3.18,2.189-5.22,2.189s-3.779-0.73-5.22-2.189c-1.439-1.46-2.16-3.21-2.16-5.25
	c0-2.079,0.721-3.84,2.16-5.279C1192.86,1030.642,1194.6,1029.922,1196.64,1029.922z"/>
<path fill="#096EA2" d="M1230.657,1029.922c2.04,0,3.779,0.72,5.22,2.16c1.439,1.439,2.16,3.2,2.16,5.279
	c0,2.04-0.721,3.79-2.16,5.25c-1.44,1.459-3.18,2.189-5.22,2.189s-3.779-0.73-5.22-2.189c-1.439-1.46-2.16-3.21-2.16-5.25
	c0-2.079,0.721-3.84,2.16-5.279C1226.878,1030.642,1228.617,1029.922,1230.657,1029.922z"/>
</svg>
